<svg xmlns="http://www.w3.org/2000/svg" width="1024" height="1024" viewBox="0 0 1024 1024"><path fill="#fff" d="M0 0h1024v1024H0z"/><path fill="#060952" d="M164.292 418.602c9.3-.693 29.428-.184 39.493-.116 19.004.129 40.16-.49 58.853.303l.198.594c-1.569 3.055-11.461 4.784-15.736 9.466-9.833 10.77-8.108 25.867-8.109 39.312l.021 33.676-.336 111.138a2503 2503 0 0 1 59.569 11.965c32.006 6.985 69.858 19.005 102.166 13.482 18.723-3.2 26.178-9.631 36.495-24.552 4.884 13.523 2.747 29.966-3.442 42.701a56.3 56.3 0 0 1-14.523 17.464c-10.318 8.257-20.659 10.935-33.502 12.235-55.756 5.641-88.693-47.108-137.579-63.076-22.192-7.249-39.01-6.711-62.021-5.51-3.03.158-16.913 1.242-19.195.985l-.499-.652c.944-1.219 7.204-3.348 9.427-4.53 16.934-9.005 13.523-32.128 13.496-49.153l-.074-42.137-.043-42.921c-.013-13.098 1.021-31.594-3.24-44.072-2.535-7.426-12.431-11.709-19.173-13.891-1.709-.553-1.62-1.086-2.246-2.711"/><path fill="#060952" d="M771.26 471.692c9.213-1.464 22.864 1.053 31.476 4.409 19.41 7.563 30.741 23.017 33.144 43.569.907 7.755.655 14.329.647 22.135l-.065 31.941c.015 6.004-.916 33.653 11.809 28.703 2.134-.83 3.701-3.143 6.401-2.651l.116 1.002c-.759 2.038-1.273 2.774-2.788 4.375-17.823 18.827-59.451 25.123-59.609-11.911-14.08 19.807-30.408 31.163-55.707 24.472-10.313-2.728-15.684-7.683-20.843-16.786-2.713-5.633-4.191-12.362-4.546-18.67-1.913-33.98 35.357-42.377 59.044-55.456 6.189-3.417 12.371-6.38 17.211-11.794a25.45 25.45 0 0 0 6.502-19.115c-.867-10.343-8.663-23.058-20.746-20.823-22.466 4.271-8.67 30.769-19.195 43.695-11.174 13.723-34.07 8.295-36.412-10.184a21.06 21.06 0 0 1 4.469-15.931c9.19-11.457 34.972-19.415 49.092-20.98"/><path fill="#fff" d="M791.897 516.902c1.573 2.43-.067 48.203.694 55.422 1.544 14.65-14.271 37.712-29.834 20.73-3.994-5.793-5.559-11.119-6.3-17.974-3.169-29.323 19.324-38.781 35.005-57.649z"/><path fill="#060952" d="M491.353 471.704c13.408-2.274 31.134 3.019 42.152 10.559 20.987 14.363 22.563 36.797 22.087 60.119-.283 13.886-.098 28.94.456 42.868.304 4.702.973 11.622 3.97 15.413 4.304 5.444 9.353-.808 13.295-.561l.063 1.084c-.587 1.256-.66 1.323-1.596 2.349-8.963 9.949-19.157 15.928-32.742 16.408-16.967.599-27.3-8.136-27.611-25.301l-.011-.791c-13.588 18.904-32.312 31.248-56.324 23.65-10.206-3.229-15.176-8.247-20.094-17.61a47.1 47.1 0 0 1-4.046-14.394c-5.539-45.803 54.102-47.319 77.236-71.986 8.058-8.592 5.404-28.884-4.631-35.795a15.3 15.3 0 0 0-12.19-2.198c-16.394 3.848-12.403 19.509-13.814 31.965-1.096 9.668-7.153 16.842-16.892 18.542a21.21 21.21 0 0 1-16.137-3.611c-14.111-10.051-8.373-29.91 5.801-37.176 13.924-7.138 25.261-11.935 41.028-13.534"/><path fill="#fff" d="M510.891 516.889c1.476 1.947.21 46.604.617 52.446.501 7.194-.497 18.077-6.001 23.448-6.764 6.601-16.492 8.015-23.439.934-4.364-5.913-6.155-13.75-6.651-20.979-1.784-26.032 19.726-38.129 35.474-55.849"/><path fill="#060952" d="m623.013 472.441.65.65c-1.77 13.637-2.168 17.934-2.592 31.993 9.259-14.677 25.099-31.753 43.647-32.142 16.907-.354 30.841 10.087 34.39 26.687 2.582 12.077 1.826 23.656 1.905 35.876.119 18.612.14 37.095.125 55.688.001 6.262 1.734 16.81 7.384 20.505 2.197 1.437 6.922 2.803 9.1 4.847l-.454.369c-8.392.768-72.948 1.386-77.765-.131l-.059-.577c3.722-2.462 7.503-1.334 11.339-5.796 4.45-4.798 5.305-13.59 5.164-20.1-.528-24.506.901-50.028-.233-74.452-.328-4.69-1.767-9.913-4.768-13.599a13.82 13.82 0 0 0-9.79-5.156c-11.243-.866-19.946 10.595-19.893 21.05.105 20.853-.153 41.784-.086 62.627.033 10.505-1.432 26.026 9.127 32.011 2.233 1.265 5.815 1.838 7.67 3.793l-.358.463c-2.683.584-19.592.406-23.433.371-18.47-.166-37.695.382-56.092-.511 8.814-3.853 13.486-3.098 16.884-13.393a31.5 31.5 0 0 0 1.482-7.364c1.104-13.464.226-31.156.6-44.938-.233-12.953.561-26.05-.201-38.98-.725-12.297-5.258-15.847-15.82-19.256 28.274-4.497 36.647-7.82 62.077-20.535"/><path fill="#060952" d="M336.999 472.58c.782 1.627.392 14.468.367 17.359l-.106 51.458c-.007 12.231-1.528 34.142 1.89 45.159 1.263 4.072 2.876 7.073 6.813 9.006 3.985 1.956 9.722 2.72 13.939 1.116 4.233-1.61 7.393-5.326 9.236-9.365 1.621-3.553 2.104-7.593 2.433-11.451.925-10.865 1.384-66.136-1.76-74.391-1.769-4.64-4.44-6.257-8.718-8.216 17.322-3.921 33.877-5.849 49.778-14.922 2.894-1.652 5.865-3.253 8.809-4.815-2.866 11.472-2.894 22.857-2.672 34.584.488 25.886-.733 52.18.012 78.023.481 4.94 1.431 11.841 5.109 15.529 3.584 3.594 6.198-.014 9.798-.205.073 1.155-.497 2.134-1.284 2.961-8.187 8.351-18.966 15.245-30.958 15.867-20.854 1.082-26.801-7.713-27.307-26.838-8.235 10.578-15.885 17.44-27.973 23.45-16.062 7.985-36.156 3.456-44.7-13.029-7.166-13.822-6.428-29.086-6.36-44.168l.249-32.558c.061-8.185.793-17.307-2.783-24.8-3.053-6.397-7.043-7.108-13.325-9.195 24.262-3.744 38.327-8.308 59.513-20.559"/><path fill="#060952" d="M354.049 340.573c11.096-.61 48.235-1.501 56.82 1.962 4.636 1.87 7.806 5.826 9.656 10.389.932 2.3 1.282 4.59 1.465 7.046.943 12.597.251 25.618.279 38.275.026 11.703.725 23.668.123 35.34-.153 2.968-.405 6.681-1.656 9.39-2.795 6.058-7.752 10.102-13.959 12.304-5.399 1.562-11.771.848-16.642-1.515-20.623-10.005-7.03-48.109-13.282-66.305-4.5-12.854-21.582-7.078-29.522-12.102-15.279-9.667-11.102-30.466 6.718-34.784"/><path fill="#060952" d="M302.413 340.612c10.345-.572 22.016 4.382 23.82 15.774 2.486 15.697-.818 32.635 1.264 48.647.945 7.27 6.617 12.043 14.132 13.345 19.501.024 31.801 12.174 20.52 31.204-2.227 3.756-8.327 5.715-13.024 6.414l-30.224-.07c-8.238-.005-19.091 1.117-26.245-3.471-10.756-6.897-8.939-19.435-9.016-30.362-.038-5.453.009-10.939-.003-16.407l-.07-27.871c-.03-16.748-2.218-32.732 18.846-37.203"/><path fill="#ee7b31" d="M351.38 381.788a16.727 16.727 0 1 1 1.878 33.397c-9.107.336-16.807-6.679-17.318-15.778s6.353-16.932 15.44-17.619"/></svg>